<svg width="36" height="31" viewBox="0 0 36 31" fill="none" xmlns="http://www.w3.org/2000/svg">
<line x1="36" y1="2" y2="2" stroke="#CB1336" stroke-width="4"/>
<line x1="36" y1="29" y2="29" stroke="#CB1336" stroke-width="4"/>
<line x1="36" y1="21" y2="21" stroke="#CB1336" stroke-width="4"/>
<line x1="36" y1="10" y2="10" stroke="#CB1336" stroke-width="4"/>
<line x1="2" y1="23" x2="2" y2="8" stroke="#CB1336" stroke-width="4"/>
<line x1="2" y1="8" x2="2" y2="4" stroke="#CB1336" stroke-width="4"/>
<line x1="34" y1="8" x2="34" y2="4" stroke="#CB1336" stroke-width="4"/>
<line x1="26" y1="8" x2="26" y2="4" stroke="#CB1336" stroke-width="4"/>
<line x1="18" y1="8" x2="18" y2="4" stroke="#CB1336" stroke-width="4"/>
<line x1="10" y1="8" x2="10" y2="4" stroke="#CB1336" stroke-width="4"/>
<line x1="2" y1="27" x2="2" y2="23" stroke="#CB1336" stroke-width="4"/>
<line x1="34" y1="27" x2="34" y2="23" stroke="#CB1336" stroke-width="4"/>
<line x1="26" y1="27" x2="26" y2="23" stroke="#CB1336" stroke-width="4"/>
<line x1="18" y1="27" x2="18" y2="23" stroke="#CB1336" stroke-width="4"/>
<line x1="10" y1="27" x2="10" y2="23" stroke="#CB1336" stroke-width="4"/>
<line x1="34" y1="23" x2="34" y2="8" stroke="#CB1336" stroke-width="4"/>
</svg>
