<svg width="202" height="31" viewBox="0 0 202 31" fill="none" xmlns="http://www.w3.org/2000/svg">
<path d="M48.9013 11.5291C48.8274 10.7843 48.5104 10.2057 47.9503 9.79332C47.3902 9.38092 46.63 9.17471 45.6697 9.17471C45.0173 9.17471 44.4664 9.26704 44.017 9.4517C43.5677 9.63021 43.223 9.8795 42.983 10.1996C42.7491 10.5196 42.6321 10.8828 42.6321 11.2891C42.6198 11.6276 42.6906 11.9231 42.8445 12.1754C43.0045 12.4278 43.223 12.6463 43.5 12.831C43.777 13.0095 44.0971 13.1664 44.4602 13.3018C44.8234 13.4311 45.2112 13.5419 45.6236 13.6342L47.3224 14.0405C48.1473 14.2251 48.9044 14.4714 49.5938 14.7791C50.2831 15.0869 50.8802 15.4654 51.3849 15.9148C51.8897 16.3641 52.2805 16.8935 52.5575 17.5028C52.8407 18.1122 52.9853 18.8108 52.9915 19.5987C52.9853 20.7559 52.6899 21.7592 52.1051 22.6087C51.5265 23.4519 50.6894 24.1075 49.5938 24.5753C48.5043 25.0369 47.1901 25.2678 45.6513 25.2678C44.1248 25.2678 42.7952 25.0339 41.6626 24.5661C40.5362 24.0982 39.656 23.4058 39.022 22.4886C38.3942 21.5653 38.0649 20.4235 38.0341 19.0632H41.9027C41.9458 19.6972 42.1274 20.2266 42.4474 20.6513C42.7737 21.0698 43.2076 21.3868 43.7493 21.6023C44.2971 21.8116 44.9157 21.9162 45.6051 21.9162C46.2822 21.9162 46.87 21.8177 47.3686 21.6207C47.8733 21.4238 48.2642 21.1499 48.5412 20.799C48.8182 20.4482 48.9567 20.045 48.9567 19.5895C48.9567 19.1648 48.8305 18.8078 48.5781 18.5185C48.3319 18.2292 47.9688 17.983 47.4886 17.7798C47.0147 17.5767 46.433 17.392 45.7436 17.2259L43.6847 16.7088C42.0904 16.321 40.8317 15.7147 39.9084 14.8899C38.9851 14.0651 38.5265 12.9541 38.5327 11.5568C38.5265 10.4119 38.8312 9.41169 39.4467 8.55611C40.0684 7.70052 40.9209 7.03267 42.0043 6.55256C43.0876 6.07244 44.3187 5.83239 45.6974 5.83239C47.1009 5.83239 48.3258 6.07244 49.3722 6.55256C50.4247 7.03267 51.2434 7.70052 51.8281 8.55611C52.4129 9.41169 52.7145 10.4027 52.733 11.5291H48.9013ZM62.0144 25.277C60.5617 25.277 59.3122 24.9692 58.2658 24.3537C57.2256 23.732 56.4254 22.8703 55.8652 21.7685C55.3113 20.6667 55.0343 19.3987 55.0343 17.9645C55.0343 16.5118 55.3143 15.2377 55.8745 14.142C56.4408 13.0402 57.244 12.1816 58.2843 11.5661C59.3245 10.9444 60.5617 10.6335 61.9959 10.6335C63.2331 10.6335 64.3165 10.8582 65.2459 11.3075C66.1754 11.7569 66.9109 12.3878 67.4526 13.2003C67.9943 14.0128 68.2928 14.9669 68.3482 16.0625H64.6365C64.5319 15.3546 64.2549 14.7853 63.8056 14.3544C63.3624 13.9174 62.7807 13.6989 62.0605 13.6989C61.4512 13.6989 60.9187 13.8651 60.4632 14.1974C60.0139 14.5237 59.6631 15.0007 59.4107 15.6286C59.1583 16.2564 59.0321 17.0166 59.0321 17.9091C59.0321 18.8139 59.1552 19.5833 59.4015 20.2173C59.6538 20.8513 60.0078 21.3345 60.4632 21.6669C60.9187 21.9993 61.4512 22.1655 62.0605 22.1655C62.5099 22.1655 62.9131 22.0732 63.2701 21.8885C63.6332 21.7038 63.9318 21.4361 64.1657 21.0852C64.4057 20.7282 64.5627 20.3004 64.6365 19.8018H68.3482C68.2866 20.8852 67.9912 21.8393 67.4618 22.6641C66.9386 23.4827 66.2154 24.1229 65.2921 24.5845C64.3688 25.0462 63.2762 25.277 62.0144 25.277ZM70.8665 25V10.8182H74.6797V13.2926H74.8274C75.0859 12.4124 75.5199 11.7476 76.1293 11.2983C76.7386 10.8428 77.4403 10.6151 78.2344 10.6151C78.4313 10.6151 78.6437 10.6274 78.8714 10.652C79.0992 10.6766 79.2992 10.7105 79.4716 10.7536V14.2436C79.2869 14.1882 79.0315 14.139 78.7053 14.0959C78.379 14.0528 78.0805 14.0312 77.8097 14.0312C77.2311 14.0312 76.714 14.1574 76.2585 14.4098C75.8092 14.656 75.4522 15.0007 75.1875 15.4439C74.929 15.8871 74.7997 16.398 74.7997 16.9766V25H70.8665ZM87.3081 25.277C85.8493 25.277 84.5936 24.9815 83.541 24.3906C82.4946 23.7936 81.6883 22.9503 81.122 21.8608C80.5557 20.7652 80.2725 19.4695 80.2725 17.9737C80.2725 16.5149 80.5557 15.2346 81.122 14.1328C81.6883 13.031 82.4854 12.1723 83.5133 11.5568C84.5474 10.9413 85.76 10.6335 87.1511 10.6335C88.0867 10.6335 88.9577 10.7843 89.764 11.0859C90.5765 11.3814 91.2844 11.8277 91.8876 12.4247C92.497 13.0218 92.9709 13.7727 93.3095 14.6776C93.648 15.5762 93.8173 16.6288 93.8173 17.8352V18.9155H81.8422V16.478H90.1149C90.1149 15.9117 89.9918 15.41 89.7456 14.973C89.4993 14.536 89.1577 14.1944 88.7207 13.9482C88.2898 13.6958 87.7882 13.5696 87.2157 13.5696C86.6187 13.5696 86.0893 13.7081 85.6277 13.9851C85.1722 14.2559 84.8152 14.6222 84.5566 15.0838C84.2981 15.5393 84.1658 16.0471 84.1596 16.6072V18.9247C84.1596 19.6264 84.2889 20.2327 84.5474 20.7436C84.8121 21.2545 85.1845 21.6484 85.6646 21.9254C86.1447 22.2024 86.7141 22.3409 87.3727 22.3409C87.8097 22.3409 88.2098 22.2794 88.573 22.1562C88.9361 22.0331 89.247 21.8485 89.5055 21.6023C89.764 21.3561 89.961 21.0545 90.0964 20.6974L93.7342 20.9375C93.5495 21.8116 93.171 22.5748 92.5985 23.2273C92.0323 23.8736 91.2998 24.3783 90.4011 24.7415C89.5086 25.0985 88.4776 25.277 87.3081 25.277ZM102.847 25.277C101.388 25.277 100.133 24.9815 99.0801 24.3906C98.0337 23.7936 97.2273 22.9503 96.661 21.8608C96.0948 20.7652 95.8116 19.4695 95.8116 17.9737C95.8116 16.5149 96.0948 15.2346 96.661 14.1328C97.2273 13.031 98.0244 12.1723 99.0524 11.5568C100.086 10.9413 101.299 10.6335 102.69 10.6335C103.626 10.6335 104.497 10.7843 105.303 11.0859C106.116 11.3814 106.823 11.8277 107.427 12.4247C108.036 13.0218 108.51 13.7727 108.849 14.6776C109.187 15.5762 109.356 16.6288 109.356 17.8352V18.9155H97.3812V16.478H105.654C105.654 15.9117 105.531 15.41 105.285 14.973C105.038 14.536 104.697 14.1944 104.26 13.9482C103.829 13.6958 103.327 13.5696 102.755 13.5696C102.158 13.5696 101.628 13.7081 101.167 13.9851C100.711 14.2559 100.354 14.6222 100.096 15.0838C99.8372 15.5393 99.7048 16.0471 99.6987 16.6072V18.9247C99.6987 19.6264 99.8279 20.2327 100.086 20.7436C100.351 21.2545 100.724 21.6484 101.204 21.9254C101.684 22.2024 102.253 22.3409 102.912 22.3409C103.349 22.3409 103.749 22.2794 104.112 22.1562C104.475 22.0331 104.786 21.8485 105.045 21.6023C105.303 21.3561 105.5 21.0545 105.635 20.6974L109.273 20.9375C109.089 21.8116 108.71 22.5748 108.138 23.2273C107.571 23.8736 106.839 24.3783 105.94 24.7415C105.048 25.0985 104.017 25.277 102.847 25.277ZM115.856 16.8011V25H111.923V10.8182H115.672V13.3203H115.838C116.152 12.4955 116.678 11.843 117.417 11.3629C118.155 10.8767 119.051 10.6335 120.104 10.6335C121.088 10.6335 121.947 10.849 122.68 11.2798C123.412 11.7107 123.981 12.3262 124.388 13.1264C124.794 13.9205 124.997 14.8684 124.997 15.9702V25H121.064V16.6719C121.07 15.804 120.848 15.1269 120.399 14.6406C119.95 14.1482 119.331 13.902 118.543 13.902C118.014 13.902 117.546 14.0159 117.14 14.2436C116.74 14.4714 116.426 14.8037 116.198 15.2408C115.976 15.6716 115.863 16.1918 115.856 16.8011ZM128.171 25V6.09091H140.691V9.38707H132.169V13.8928H139.86V17.1889H132.169V25H128.171ZM143.306 25V10.8182H147.239V25H143.306ZM145.282 8.99006C144.697 8.99006 144.195 8.79616 143.777 8.40838C143.364 8.01444 143.158 7.54356 143.158 6.99574C143.158 6.45407 143.364 5.98935 143.777 5.60156C144.195 5.20762 144.697 5.01065 145.282 5.01065C145.867 5.01065 146.365 5.20762 146.778 5.60156C147.196 5.98935 147.405 6.45407 147.405 6.99574C147.405 7.54356 147.196 8.01444 146.778 8.40838C146.365 8.79616 145.867 8.99006 145.282 8.99006ZM156.853 25.277C155.394 25.277 154.138 24.9815 153.086 24.3906C152.04 23.7936 151.233 22.9503 150.667 21.8608C150.101 20.7652 149.817 19.4695 149.817 17.9737C149.817 16.5149 150.101 15.2346 150.667 14.1328C151.233 13.031 152.03 12.1723 153.058 11.5568C154.092 10.9413 155.305 10.6335 156.696 10.6335C157.632 10.6335 158.503 10.7843 159.309 11.0859C160.121 11.3814 160.829 11.8277 161.433 12.4247C162.042 13.0218 162.516 13.7727 162.854 14.6776C163.193 15.5762 163.362 16.6288 163.362 17.8352V18.9155H151.387V16.478H159.66C159.66 15.9117 159.537 15.41 159.29 14.973C159.044 14.536 158.703 14.1944 158.266 13.9482C157.835 13.6958 157.333 13.5696 156.761 13.5696C156.164 13.5696 155.634 13.7081 155.173 13.9851C154.717 14.2559 154.36 14.6222 154.102 15.0838C153.843 15.5393 153.711 16.0471 153.705 16.6072V18.9247C153.705 19.6264 153.834 20.2327 154.092 20.7436C154.357 21.2545 154.729 21.6484 155.21 21.9254C155.69 22.2024 156.259 22.3409 156.918 22.3409C157.355 22.3409 157.755 22.2794 158.118 22.1562C158.481 22.0331 158.792 21.8485 159.05 21.6023C159.309 21.3561 159.506 21.0545 159.641 20.6974L163.279 20.9375C163.094 21.8116 162.716 22.5748 162.143 23.2273C161.577 23.8736 160.845 24.3783 159.946 24.7415C159.054 25.0985 158.022 25.277 156.853 25.277ZM169.862 16.8011V25H165.929V10.8182H169.678V13.3203H169.844C170.158 12.4955 170.684 11.843 171.423 11.3629C172.161 10.8767 173.057 10.6335 174.109 10.6335C175.094 10.6335 175.953 10.849 176.685 11.2798C177.418 11.7107 177.987 12.3262 178.393 13.1264C178.8 13.9205 179.003 14.8684 179.003 15.9702V25H175.07V16.6719C175.076 15.804 174.854 15.1269 174.405 14.6406C173.955 14.1482 173.337 13.902 172.549 13.902C172.02 13.902 171.552 14.0159 171.146 14.2436C170.746 14.4714 170.432 14.8037 170.204 15.2408C169.982 15.6716 169.868 16.1918 169.862 16.8011ZM187.329 25.2308C186.251 25.2308 185.276 24.9538 184.402 24.3999C183.534 23.8397 182.845 23.018 182.334 21.9347C181.829 20.8452 181.577 19.5095 181.577 17.9276C181.577 16.3026 181.838 14.9515 182.361 13.8743C182.885 12.791 183.58 11.9815 184.448 11.446C185.322 10.9044 186.279 10.6335 187.319 10.6335C188.113 10.6335 188.775 10.7689 189.305 11.0398C189.84 11.3045 190.271 11.6368 190.597 12.0369C190.93 12.4309 191.182 12.8187 191.354 13.2003H191.474V6.09091H195.398V25H191.52V22.7287H191.354C191.17 23.1226 190.908 23.5135 190.569 23.9013C190.237 24.2829 189.803 24.5999 189.268 24.8523C188.738 25.1046 188.092 25.2308 187.329 25.2308ZM188.575 22.1009C189.209 22.1009 189.745 21.9285 190.182 21.5838C190.625 21.233 190.963 20.7436 191.197 20.1158C191.437 19.4879 191.557 18.7524 191.557 17.9091C191.557 17.0658 191.44 16.3333 191.206 15.7116C190.973 15.09 190.634 14.6098 190.191 14.2713C189.748 13.9328 189.209 13.7635 188.575 13.7635C187.929 13.7635 187.384 13.9389 186.941 14.2898C186.498 14.6406 186.162 15.1269 185.934 15.7486C185.707 16.3703 185.593 17.0904 185.593 17.9091C185.593 18.7339 185.707 19.4633 185.934 20.0973C186.168 20.7251 186.504 21.2176 186.941 21.5746C187.384 21.9254 187.929 22.1009 188.575 22.1009Z" fill="#CB1336"/>
<line x1="36" y1="2" y2="2" stroke="#CB1336" stroke-width="4"/>
<line x1="36" y1="29" y2="29" stroke="#CB1336" stroke-width="4"/>
<line x1="36" y1="21" y2="21" stroke="#CB1336" stroke-width="4"/>
<line x1="36" y1="10" y2="10" stroke="#CB1336" stroke-width="4"/>
<line x1="2" y1="23" x2="2" y2="8" stroke="#CB1336" stroke-width="4"/>
<line x1="2" y1="8" x2="2" y2="4" stroke="#CB1336" stroke-width="4"/>
<line x1="34" y1="8" x2="34" y2="4" stroke="#CB1336" stroke-width="4"/>
<line x1="26" y1="8" x2="26" y2="4" stroke="#CB1336" stroke-width="4"/>
<line x1="18" y1="8" x2="18" y2="4" stroke="#CB1336" stroke-width="4"/>
<line x1="10" y1="8" x2="10" y2="4" stroke="#CB1336" stroke-width="4"/>
<line x1="2" y1="27" x2="2" y2="23" stroke="#CB1336" stroke-width="4"/>
<line x1="34" y1="27" x2="34" y2="23" stroke="#CB1336" stroke-width="4"/>
<line x1="26" y1="27" x2="26" y2="23" stroke="#CB1336" stroke-width="4"/>
<line x1="18" y1="27" x2="18" y2="23" stroke="#CB1336" stroke-width="4"/>
<line x1="10" y1="27" x2="10" y2="23" stroke="#CB1336" stroke-width="4"/>
<line x1="34" y1="23" x2="34" y2="8" stroke="#CB1336" stroke-width="4"/>
<rect x="34" y="2" width="166" height="27" stroke="#CB1336" stroke-width="4"/>
</svg>
